<?xml version="1.0" encoding="UTF-8"?>
<svg version="1.1" xmlns="http://www.w3.org/2000/svg" width="32" height="32">
<path d="M0 0 C10.56 0 21.12 0 32 0 C32 10.56 32 21.12 32 32 C21.44 32 10.88 32 0 32 C0 21.44 0 10.88 0 0 Z " fill="#6B3A1C" transform="translate(0,0)"/>
<path d="M0 0 C9.27734375 -0.09765625 9.27734375 -0.09765625 12 0 C13 1 13 1 13.09765625 3.94140625 C13.06510417 7.29427083 13.03255208 10.64713542 13 14 C8.71 14 4.42 14 0 14 C0 9.38 0 4.76 0 0 Z " fill="#EC341F" transform="translate(18,17)"/>
<path d="M0 0 C4.29 0 8.58 0 13 0 C13 4.29 13 8.58 13 13 C8.71 13 4.42 13 0 13 C0 8.71 0 4.42 0 0 Z " fill="#EEC13D" transform="translate(1,17)"/>
<path d="M0 0 C4.29 0 8.58 0 13 0 C13 4.29 13 8.58 13 13 C3.72265625 13.09765625 3.72265625 13.09765625 1 13 C0 12 0 12 -0.09765625 9.27734375 C-0.06510417 6.18489583 -0.03255208 3.09244792 0 0 Z " fill="#719D77" transform="translate(17,1)"/>
<path d="M0 0 C3.09244792 0.03255208 6.18489583 0.06510417 9.27734375 0.09765625 C9.27734375 4.38765625 9.27734375 8.67765625 9.27734375 13.09765625 C4.98734375 13.09765625 0.69734375 13.09765625 -3.72265625 13.09765625 C-3.8203125 3.8203125 -3.8203125 3.8203125 -3.72265625 1.09765625 C-2.72265625 0.09765625 -2.72265625 0.09765625 0 0 Z " fill="#8EB994" transform="translate(4.72265625,0.90234375)"/>
<path d="M0 0 C2.14576637 -0.02685938 4.29162645 -0.04633088 6.4375 -0.0625 C7.63246094 -0.07410156 8.82742187 -0.08570313 10.05859375 -0.09765625 C13 0 13 0 14 1 C14 5.95 14 10.9 14 16 C3.44 16 -7.12 16 -18 16 C-18 11.05 -18 6.1 -18 1 C-17.67 1 -17.34 1 -17 1 C-17 5.29 -17 9.58 -17 14 C-12.38 14 -7.76 14 -3 14 C-3 9.71 -3 5.42 -3 1 C-2.34 1.33 -1.68 1.66 -1 2 C-0.39386091 5.98565046 -0.25435265 9.97274969 0 14 C4.29 14.33 8.58 14.66 13 15 C12.505 8.565 12.505 8.565 12 2 C8.04 1.67 4.08 1.34 0 1 C0 0.67 0 0.34 0 0 Z " fill="#5F240F" transform="translate(18,16)"/>
<path d="M0 0 C10.56 0 21.12 0 32 0 C31.67 4.29 31.34 8.58 31 13 C30.67 13 30.34 13 30 13 C30 9.04 30 5.08 30 1 C25.71 1 21.42 1 17 1 C17 1.99 17 2.98 17 4 C16.34 4 15.68 4 15 4 C15 6.97 15 9.94 15 13 C14.67 13 14.34 13 14 13 C14 9.04 14 5.08 14 1 C8.06 1.495 8.06 1.495 2 2 C1.67 5.96 1.34 9.92 1 14 C4.3 14 7.6 14 11 14 C11 14.33 11 14.66 11 15 C10.37351562 15.06058594 9.74703125 15.12117187 9.1015625 15.18359375 C8.28429688 15.26738281 7.46703125 15.35117188 6.625 15.4375 C5.81289062 15.51871094 5.00078125 15.59992187 4.1640625 15.68359375 C1.95727195 15.89090114 1.95727195 15.89090114 0 17 C0 11.39 0 5.78 0 0 Z " fill="#6B634D" transform="translate(0,0)"/>
<path d="M0 0 C0.66 0 1.32 0 2 0 C2.33 2.64 2.66 5.28 3 8 C3.433125 7.34 3.86625 6.68 4.3125 6 C4.869375 5.34 5.42625 4.68 6 4 C6.99 4 7.98 4 9 4 C8.67 5.32 8.34 6.64 8 8 C8.66 7.01 9.32 6.02 10 5 C10.99 4.01 11.98 3.02 13 2 C13 4.97 13 7.94 13 11 C8.71 11 4.42 11 0 11 C0 7.37 0 3.74 0 0 Z " fill="#86AB88" transform="translate(1,3)"/>
<path d="M0 0 C3.96 0 7.92 0 12 0 C11.67 2.31 11.34 4.62 11 7 C10.01 7.33 9.02 7.66 8 8 C8 7.34 8 6.68 8 6 C6.68 6 5.36 6 4 6 C4 6.66 4 7.32 4 8 C2.68 8.33 1.36 8.66 0 9 C0 6.03 0 3.06 0 0 Z " fill="#95BA94" transform="translate(18,1)"/>
<path d="M0 0 C9.27734375 -0.09765625 9.27734375 -0.09765625 12 0 C13 1 13 1 13.09765625 3.94140625 C13.06510417 7.29427083 13.03255208 10.64713542 13 14 C8.71 14 4.42 14 0 14 C0 9.38 0 4.76 0 0 Z M1 3 C1 6.3 1 9.6 1 13 C6.445 12.505 6.445 12.505 12 12 C12 9.03 12 6.06 12 3 C8.37 3 4.74 3 1 3 Z " fill="#C93D2C" transform="translate(18,17)"/>
<path d="M0 0 C0.66 0 1.32 0 2 0 C2.33 2.97 2.66 5.94 3 9 C6.96 9 10.92 9 15 9 C15.33 6.03 15.66 3.06 16 0 C16.33 0 16.66 0 17 0 C17.02688151 1.64574566 17.04634123 3.29161413 17.0625 4.9375 C17.07410156 5.85402344 17.08570312 6.77054688 17.09765625 7.71484375 C17 10 17 10 16 11 C13.30764224 11.23678716 10.63501844 11.42198025 7.9375 11.5625 C6.79958008 11.62727539 6.79958008 11.62727539 5.63867188 11.69335938 C3.75934562 11.79973633 1.87969756 11.90039934 0 12 C-1.03159626 8.90521121 -0.97482862 7.47368607 -0.5625 4.3125 C-0.46066406 3.50425781 -0.35882813 2.69601563 -0.25390625 1.86328125 C-0.17011719 1.24839844 -0.08632812 0.63351563 0 0 Z " fill="#42311B" transform="translate(15,4)"/>
<path d="M0 0 C1.32 0 2.64 0 4 0 C4 3.3 4 6.6 4 10 C1.03 10 -1.94 10 -5 10 C-5 8.68 -5 7.36 -5 6 C-2.69 6.66 -0.38 7.32 2 8 C2 6.35 2 4.7 2 3 C1.34 3 0.68 3 0 3 C0 2.01 0 1.02 0 0 Z " fill="#F5C419" transform="translate(9,19)"/>
<path d="M0 0 C0.33 0 0.66 0 1 0 C1 2.97 1 5.94 1 9 C1.763125 8.79375 2.52625 8.5875 3.3125 8.375 C6 8 6 8 9 10 C7.68 10.33 6.36 10.66 5 11 C7.64 11.33 10.28 11.66 13 12 C13 12.33 13 12.66 13 13 C11.02090602 13.02686553 9.04171029 13.04633375 7.0625 13.0625 C5.96035156 13.07410156 4.85820312 13.08570313 3.72265625 13.09765625 C1 13 1 13 0 12 C-0.07244053 9.98035801 -0.08377188 7.95832876 -0.0625 5.9375 C-0.05347656 4.83277344 -0.04445313 3.72804688 -0.03515625 2.58984375 C-0.02355469 1.73519531 -0.01195313 0.88054687 0 0 Z " fill="#7F9C7B" transform="translate(17,1)"/>
<path d="M0 0 C1.32 0 2.64 0 4 0 C4 1.65 4 3.3 4 5 C3.01 5.33 2.02 5.66 1 6 C1 5.34 1 4.68 1 4 C-0.32 4 -1.64 4 -3 4 C-3 4.66 -3 5.32 -3 6 C-3.99 6.33 -4.98 6.66 -6 7 C-5.625 5.0625 -5.625 5.0625 -5 3 C-4.34 2.67 -3.68 2.34 -3 2 C-2.34 2.33 -1.68 2.66 -1 3 C-0.67 2.01 -0.34 1.02 0 0 Z " fill="#83B28C" transform="translate(25,3)"/>
<path d="M0 0 C1.67542976 0.28604898 3.34385343 0.61781233 5 1 C4.67 2.65 4.34 4.3 4 6 C2.35 6 0.7 6 -1 6 C-1.042721 4.33388095 -1.04063832 2.66617115 -1 1 C-0.67 0.67 -0.34 0.34 0 0 Z " fill="#C03120" transform="translate(22,21)"/>
<path d="M0 0 C0.99 0 1.98 0 3 0 C2.67 1.98 2.34 3.96 2 6 C0.02 6 -1.96 6 -4 6 C-2.1875 3 -2.1875 3 0 0 Z " fill="#6B9B74" transform="translate(7,7)"/>
<path d="M0 0 C0.66 0 1.32 0 2 0 C2.33 3.3 2.66 6.6 3 10 C2.01 10.66 1.02 11.32 0 12 C-1.03159626 8.90521121 -0.97482862 7.47368607 -0.5625 4.3125 C-0.46066406 3.50425781 -0.35882813 2.69601563 -0.25390625 1.86328125 C-0.17011719 1.24839844 -0.08632812 0.63351563 0 0 Z " fill="#4B3A26" transform="translate(15,4)"/>
<path d="M0 0 C1.32 0 2.64 0 4 0 C4 1.65 4 3.3 4 5 C2.35 4.67 0.7 4.34 -1 4 C-0.67 2.68 -0.34 1.36 0 0 Z " fill="#BC912C" transform="translate(7,22)"/>
</svg>
